# xmcd
#
# Track frame offsets: 
#        150
#        11580
#        24850
#        41370
#        56910
#        71595
#        87787
#        101305
#        116777
#        127082
#        140225
#        153082
#        167080
#        180152
#        192877
#
# Disc length: 2809 seconds
#
# Revision: 6
# Processed by: cddbd v1.5.2PL0 Copyright (c) Steve Scherf et al.
# Submitted via: ExactAudioCopy v0.99pb5
#
DISCID=bf0af70f
DTITLE=Various Artist - Classic Country - TL 626-10 - Golden '80s - CD 1
DYEAR=2000
DGENRE=Country
TTITLE0=Willie Nelson - On the road again
TTITLE1=Mickey Gilley - True love ways
TTITLE2=Alabama - The closer you get
TTITLE3=Dolly Parton - Old flames can't hold a candle to you
TTITLE4=Merle Haggard and George Jones - Yesterday's wine
TTITLE5=Ronnie Milsap - I wouldn't have missed it for the world
TTITLE6=Janie Fricke - He's a heartache (looking for a place to happen
TTITLE6=)
TTITLE7=Waylon Jennings - Lucille (you won't do your daddy's will)
TTITLE8=Statler Brothers - Hello Mary Lou
TTITLE9=Don Williams - Lay down beside me
TTITLE10=John Anderson - Wild and blue
TTITLE11=Willie Nelson - My heroes have always been cowboys
TTITLE12=Reba McEntire - You're the first time I've thought about leav
TTITLE12=ing
TTITLE13=Charley Pride - Mountain of love
TTITLE14=Lee Greenwood - Wind beneath my wings
EXTD=
EXTT0=
EXTT1=
EXTT2=
EXTT3=
EXTT4=
EXTT5=
EXTT6=
EXTT7=
EXTT8=
EXTT9=
EXTT10=
EXTT11=
EXTT12=
EXTT13=
EXTT14=
PLAYORDER=
